USFL
nRows=207
nColumns=2
inDegrees=yes
endheader
time	soleus_r	
12.5746	 26.186030	
12.6079	 26.181903	
12.6411	 26.180802	
12.6744	 26.174679	
12.7077	 26.193520	
12.7409	 26.200310	
12.7742	 26.209166	
12.8075	 26.225008	
12.8407	 26.187525	
12.874	 26.177455	
12.9073	 26.187317	
12.9405	 26.197786	
12.9738	 26.156928	
13.0071	 26.172372	
13.0403	 26.134883	
13.0736	 26.163005	
13.1069	 26.170251	
13.1401	 26.124786	
13.1734	 26.150274	
13.2067	 26.159407	
13.2399	 26.127285	
13.2732	 26.128736	
13.3065	 26.104250	
13.3397	 26.114042	
13.373	 25.996649	
13.4062	 25.827681	
13.4395	 25.871036	
13.4728	 25.748091	
13.506	 25.725777	
13.5393	 25.695902	
13.5726	 25.674303	
13.6058	 25.626754	
13.6391	 25.541531	
13.6724	 25.398995	
13.7056	 25.305287	
13.7389	 25.284697	
13.7722	 25.224581	
13.8054	 25.172849	
13.8387	 25.063875	
13.872	 24.996268	
13.9052	 24.952626	
13.9385	 24.968011	
13.9718	 24.965624	
14.005	 24.813818	
14.0383	 24.742099	
14.0716	 24.434207	
14.1048	 24.422702	
14.1381	 24.315491	
14.1714	 24.204210	
14.2046	 24.161511	
14.2379	 24.293454	
14.2712	 24.227704	
14.3044	 24.208479	
14.3377	 22.325147	
14.371	 22.178650	
14.4042	 19.755617	
14.4375	 19.459284	
14.4708	 19.308343	
14.504	 19.161101	
14.5373	 19.040355	
14.5706	 19.034344	
14.6038	 18.709932	
14.6371	 18.762415	
14.6704	 18.868736	
14.7036	 18.842402	
14.7369	 17.378966	
14.7702	 17.344497	
14.8034	 17.180499	
14.8367	 17.244573	
14.87	 17.122287	
14.9032	 16.645271	
14.9365	 16.876067	
14.9698	 17.443218	
15.003	 16.823537	
15.0363	 16.926176	
15.0696	 16.921791	
15.1028	 17.042556	
15.1361	 16.833243	
15.1694	 17.117634	
15.2026	 17.038433	
15.2359	 17.219163	
15.2692	 16.881779	
15.3024	 16.614399	
15.3357	 16.712766	
15.369	 16.641721	
15.4022	 17.307948	
15.4355	 17.475605	
15.4687	 17.869986	
15.502	 18.028924	
15.5353	 18.512475	
15.5685	 18.847633	
15.6018	 18.769528	
15.6351	 18.251151	
15.6683	 18.081949	
15.7016	 18.182185	
15.7349	 18.608373	
15.7681	 18.720725	
15.8014	 15.411793	
15.8347	 14.827785	
15.8679	 14.883312	
15.9012	 14.906815	
15.9345	 15.247420	
15.9677	 15.834854	
16.001	 16.073222	
16.0343	 16.088970	
16.0675	 15.870520	
16.1008	 15.155253	
16.1341	 15.497065	
16.1673	 15.550018	
16.2006	 16.111269	
16.2339	 16.143585	
16.2671	 16.289874	
16.3004	 16.411741	
16.3337	 16.454987	
16.3669	 16.495289	
16.4002	 16.497662	
16.4335	 16.587806	
16.4667	 16.537864	
16.5	 16.531060	
16.5333	 16.581499	
16.5665	 16.625833	
16.5998	 16.618508	
16.6331	 16.691309	
16.6663	 16.163362	
16.6996	 16.331995	
16.7329	 16.219126	
16.7661	 16.470318	
16.7994	 16.592212	
16.8327	 16.594364	
16.8659	 16.561117	
16.8992	 16.521641	
16.9325	 16.715811	
16.9657	 16.701296	
16.999	 16.762500	
17.0323	 16.957231	
17.0655	 16.808145	
17.0988	 17.306949	
17.1321	 17.335053	
17.1653	 17.226374	
17.1986	 18.057183	
17.2319	 18.092477	
17.2651	 18.112621	
17.2984	 18.235929	
17.3317	 18.116379	
17.3649	 18.003962	
17.3982	 17.938485	
17.4315	 17.893355	
17.4647	 18.002443	
17.498	 17.903797	
17.5312	 15.699745	
17.5645	 15.701487	
17.5978	 15.660184	
17.631	 15.700891	
17.6643	 15.806734	
17.6976	 15.792176	
17.7308	 15.730480	
17.7641	 15.792286	
17.7974	 15.779091	
17.8306	 14.901421	
17.8639	 15.153101	
17.8972	 15.393172	
17.9304	 15.567714	
17.9637	 15.559816	
17.997	 15.599075	
18.0302	 15.542219	
18.0635	 15.550298	
18.0968	 15.528418	
18.13	 15.593159	
18.1633	 15.566041	
18.1966	 15.555246	
18.2298	 15.545610	
18.2631	 15.621695	
18.2964	 15.572982	
18.3296	 15.582599	
18.3629	 15.560887	
18.3962	 15.462473	
18.4294	 16.922876	
18.4627	 16.874902	
18.496	 20.002709	
18.5292	 19.918428	
18.5625	 19.883766	
18.5958	 19.883203	
18.629	 19.936877	
18.6623	 19.958506	
18.6956	 23.097693	
18.7288	 23.350506	
18.7621	 23.364474	
18.7954	 23.377043	
18.8286	 23.438164	
18.8619	 23.536874	
18.8952	 23.648272	
18.9284	 23.700110	
18.9617	 23.678705	
18.995	 23.586701	
19.0282	 23.596327	
19.0615	 23.556722	
19.0948	 23.718003	
19.128	 23.703724	
19.1613	 23.658567	
19.1946	 23.682328	
19.2278	 23.769168	
19.2611	 23.775462	
19.2944	 23.850800	
19.3276	 23.802109	
19.3609	 23.909194	
19.3942	 23.889355	
19.4274	 23.842336	
